:SAMPLES-PER-SECOND 30
:FULLY-SPECIFIED
:DEGREES
302
root  13.5794 29.4961 -1.03665 156.814 -78.5358 -171.053
RightUpLeg  -30.0337 2.42535 -25.944
RightLeg  66.4801 2.27827 5.10451
RightFoot  -16.7792 1.35191 30.0608
RightToes  -5.28226e-011 1.30204e-014 -6.03759e-014
Spine  35.9643 0.749706 -17.9889
Spine1  3.46713 -9.24707 16.9255
HEad  -24.6017 33.868 -17.2979
LeftShoulder1  1.74584 -2.66835 -21.8497
LeftArm  -27.2392 41.9588 -18.5652
LeftForeArm  -35.4107 -51.3347 -16.5649
LeftHand  0.566382 7.25521 33.8457
RightShoulder  0.583544 -0.997683 16.8762
RightArm  -33.1511 1.56724 48.8469
RightForeArm  -24.5432 47.8901 14.373
RightHand  -1.36036 0.0673159 -28.5119
LeftUpLeg  -9.47545 -0.635518 37.8098
LeftLeg  62.4094 -6.70987 -13.0936
LeftFoot  -35.3903 -6.50202 -30.8439
LeftToes  -2.75829e-010 5.07641e-011 -5.51782e-011
303
root  13.3274 29.187 -1.93918 140.458 -84.1782 -154.566
RightUpLeg  -27.3476 -3.60983 -26.9218
RightLeg  69.8546 2.49631 6.76661
RightFoot  -21.6428 2.63324 30.2399
RightToes  -5.28226e-011 1.30204e-014 -6.03759e-014
Spine  35.1699 -0.743349 -14.3362
Spine1  4.37425 -9.25038 15.7931
HEad  -23.3348 29.3597 -14.1691
LeftShoulder1  1.26562 -1.75273 -17.4779
LeftArm  -17.0719 28.6439 -20.5035
LeftForeArm  -38.4962 -33.3864 -9.01837
LeftHand  0.591878 7.23883 35.3401
RightShoulder  0.842419 -0.234582 19.1183
RightArm  -36.727 -14.3385 49.2355
RightForeArm  -20.7512 61.5561 23.0874
RightHand  -1.00355 -1.18431 -27.4064
LeftUpLeg  -12.9374 -9.54112 36.347
LeftLeg  61.5772 -5.07804 -9.50058
LeftFoot  -34.579 -6.59111 -32.2753
LeftToes  -2.75829e-010 5.07641e-011 -5.51782e-011
304
root  13.012 29.3076 -2.50085 126.703 -88.3898 -141.177
RightUpLeg  -24.4581 -7.96288 -28.7743
RightLeg  71.2 2.68785 7.95065
RightFoot  -22.3097 2.64488 28.5453
RightToes  -5.28226e-011 1.30204e-014 -6.03759e-014
Spine  34.0952 -1.80432 -4.75778
Spine1  4.51728 -5.21272 7.78465
HEad  -20.4572 17.3982 -8.64392
LeftShoulder1  1.18523 -1.32976 -17.8726
LeftArm  -13.8547 9.86648 -22.2274
LeftForeArm  -38.0024 -21.9034 -6.5137
LeftHand  0.708495 7.51213 36.8032
RightShoulder  1.61902 2.04723 23.0421
RightArm  -37.8694 -29.7174 44.028
RightForeArm  -21.2572 64.4569 26.9815
RightHand  -0.994053 -1.38991 -28.3883
LeftUpLeg  -13.7206 -16.5953 34.0217
LeftLeg  59.2794 -3.45208 -5.7391
LeftFoot  -33.3814 -6.73321 -34.6065
LeftToes  -2.75829e-010 5.07641e-011 -5.51782e-011
305
root  12.6565 29.8443 -2.91377 -161.682 -88.1034 145.958
RightUpLeg  -22.684 -7.21453 -30.8525
RightLeg  70.2307 2.93337 8.25729
RightFoot  -21.5492 2.26985 26.6237
RightToes  -5.28226e-011 1.30204e-014 -6.03759e-014
Spine  33.469 -1.69641 4.69696
Spine1  4.96079 0.760271 -4.77863
HEad  -17.6156 5.44185 -4.73436
LeftShoulder1  1.34255 -1.49041 -20.465
LeftArm  -15.6258 -0.906066 -23.1969
LeftForeArm  -36.7583 -20.6829 -6.98535
LeftHand  0.570281 7.09372 36.7088
RightShoulder  2.1181 3.56498 23.9088
RightArm  -32.458 -36.4605 41.5976
RightForeArm  -30.8504 54.4855 18.2012
RightHand  -1.26228 -0.602791 -30.1384
LeftUpLeg  -9.02736 -16.3489 30.2945
LeftLeg  55.1365 -2.04866 -2.64933
LeftFoot  -30.6564 -6.51381 -38.1019
LeftToes  -2.75829e-010 5.07641e-011 -5.51782e-011
306
root  12.3714 30.7341 -3.37521 -139.422 -83.464 123.046
RightUpLeg  -21.8883 -4.17754 -32.9444
RightLeg  67.4777 3.02054 7.33013
RightFoot  -21.0532 2.11285 26.1433
RightToes  -5.28226e-011 1.30204e-014 -6.03759e-014
Spine  34.1769 -1.02257 10.2997
Spine1  4.21227 5.65664 -16.0027
HEad  -14.8242 -2.82589 -4.2095
LeftShoulder1  1.13226 -0.827837 -19.5551
LeftArm  -12.5523 -1.83795 -27.7255
LeftForeArm  -37.8474 -26.6266 -7.29271
LeftHand  0.295498 6.31036 34.9689
RightShoulder  2.01639 4.07872 20.2403
RightArm  -25.6389 -38.039 44.22
RightForeArm  -36.4023 43.3574 12.3828
RightHand  -1.50062 0.186621 -30.7604
LeftUpLeg  -4.63271 -9.00212 27.5094
LeftLeg  50.8359 -2.40578 -2.6628
LeftFoot  -22.668 -4.09053 -40.9575
LeftToes  -2.75829e-010 5.07641e-011 -5.51782e-011
307
root  12.2208 31.9568 -3.86095 -114.295 -81.7741 98.9154
RightUpLeg  -19.1534 -4.4134 -34.3141
RightLeg  62.752 2.60289 4.9717
RightFoot  -19.7057 1.83153 26.4449
RightToes  -5.28226e-011 1.30204e-014 -6.03759e-014
Spine  34.0025 -1.26916 12.7053
Spine1  2.00332 6.66762 -20.3698
HEad  -11.4854 -7.09954 -6.58424
LeftShoulder1  0.721133 0.513782 -17.4989
LeftArm  -11.0969 2.11112 -34.2301
LeftForeArm  -32.7703 -32.789 -8.79571
LeftHand  0.0532367 5.54879 33.0692
RightShoulder  1.90357 4.39603 17.5228
RightArm  -23.7179 -39.2295 45.5066
RightForeArm  -34.1493 39.2585 10.8732
RightHand  -1.60928 0.800104 -29.7418
LeftUpLeg  -7.51077 -0.856511 27.4116
LeftLeg  49.3208 -4.84591 -5.61129
LeftFoot  -7.45036 1.39011 -40.0798
LeftToes  -2.75829e-010 5.07641e-011 -5.51782e-011
308
root  12.1141 33.4245 -4.15335 -64.0366 -80.4376 50.5751
RightUpLeg  -12.4494 -9.3767 -34.2533
RightLeg  55.2351 1.4611 1.86781
RightFoot  -16.7255 1.17536 26.9794
RightToes  -5.28226e-011 1.30204e-014 -6.03759e-014
Spine  31.6381 -1.74555 14.6752
Spine1  -0.345002 5.31883 -16.3469
HEad  -7.32262 -11.1314 -9.84214
LeftShoulder1  0.453832 1.61209 -17.3525
LeftArm  -9.29723 4.54721 -41.746
LeftForeArm  -31.3816 -33.1028 -8.86211
LeftHand  -0.111034 4.97888 32.2201
RightShoulder  2.00877 4.46559 18.7606
RightArm  -22.7984 -42.2274 38.1097
RightForeArm  -30.2462 39.7037 10.893
RightHand  -1.49127 0.811271 -27.6003
LeftUpLeg  -17.3999 2.22888 27.4727
LeftLeg  50.4346 -5.9143 -7.16267
LeftFoot  9.09205 6.43863 -35.0643
LeftToes  -2.75829e-010 5.07641e-011 -5.51782e-011
309
root  11.9708 35.0426 -4.30983 -32.1979 -74.6755 20.3496
RightUpLeg  -4.05566 -14.6811 -33.4798
RightLeg  45.2673 -0.90284 -1.25342
RightFoot  -12.3265 0.156816 28.2212
RightToes  -5.28226e-011 1.30204e-014 -6.03759e-014
Spine  29.3009 -0.134699 16.5271
Spine1  -3.02891 5.47259 -9.3884
HEad  -2.4744 -18.9553 -12.8862
LeftShoulder1  0.371702 1.98911 -17.8836
LeftArm  -7.25275 4.34799 -50.9972
LeftForeArm  -36.5605 -27.6413 -7.57924
LeftHand  -0.165691 4.78424 32.1778
RightShoulder  1.99912 3.80203 21.0787
RightArm  -17.7703 -45.7751 24.6534
RightForeArm  -32.8967 37.0614 10.1463
RightHand  -1.34638 0.508153 -26.2691
LeftUpLeg  -27.2949 0.546283 26.1255
LeftLeg  49.8525 -4.00779 -4.69406
LeftFoot  16.557 7.42313 -29.5353
LeftToes  -2.75829e-010 5.07641e-011 -5.51782e-011
310
root  11.9095 36.6816 -4.50511 -27.8778 -70.1386 17.5198
RightUpLeg  1.48526 -15.7201 -32.7947
RightLeg  35.3965 -5.35261 -4.31903
RightFoot  -6.03704 -1.45112 29.7242
RightToes  -5.28226e-011 1.30204e-014 -6.03759e-014
Spine  28.5836 2.90337 17.5957
Spine1  -5.47012 7.82144 -6.99266
HEad  1.73922 -28.5557 -15.3354
LeftShoulder1  0.412321 1.7686 -17.1271
LeftArm  -4.46072 5.00839 -59.2015
LeftForeArm  -41.5976 -23.285 -6.83011
LeftHand  -0.0596299 5.16018 32.456
RightShoulder  1.7805 2.94773 21.3161
RightArm  -11.7281 -48.4041 15.4031
RightForeArm  -39.3516 29.8157 8.21348
RightHand  -1.30181 0.352301 -26.0774
LeftUpLeg  -32.1871 -1.76046 23.3149
LeftLeg  44.848 -1.22206 -0.931293
LeftFoot  14.431 6.08335 -26.5685
LeftToes  -2.75829e-010 5.07641e-011 -5.51782e-011
311
root  11.9566 38.1012 -4.60419 -31.2196 -68.7834 22.5329
RightUpLeg  2.92401 -12.8184 -32.4392
RightLeg  28.0764 -11.1613 -6.62299
RightFoot  2.19076 -3.58574 29.8133
RightToes  -5.28226e-011 1.30204e-014 -6.03759e-014
Spine  28.7241 4.65608 18.6073
Spine1  -6.63324 9.8832 -9.9988
HEad  3.55479 -34.8109 -15.4746
LeftShoulder1  0.24295 2.40509 -14.5702
LeftArm  0.853746 7.08273 -63.2536
LeftForeArm  -43.1419 -23.0865 -7.05508
LeftHand  -0.0380383 5.23365 31.9479
RightShoulder  1.65172 2.92572 19.3078
RightArm  -9.79911 -49.6998 14.9192
RightForeArm  -41.8953 22.9853 6.76009
RightHand  -1.26418 0.403953 -25.1343
LeftUpLeg  -32.532 -2.29546 19.6992
LeftLeg  36.4662 -0.488387 0.0444702
LeftFoot  11.9495 5.59847 -27.0666
LeftToes  -2.75829e-010 5.07641e-011 -5.51782e-011
312
root  12.0011 39.2311 -4.59744 -36.6002 -69.4434 29.4325
RightUpLeg  2.36951 -9.60449 -32.3918
RightLeg  22.6947 -15.9054 -7.42659
RightFoot  10.9496 -5.50869 27.8874
RightToes  -5.28226e-011 1.30204e-014 -6.03759e-014
Spine  29.0829 5.00135 19.6524
Spine1  -7.04076 10.9264 -14.6815
HEad  2.70692 -36.893 -12.8106
LeftShoulder1  -0.192314 4.47943 -12.0195
LeftArm  5.85235 9.0589 -63.6515
LeftForeArm  -41.9273 -25.3649 -7.13472
LeftHand  -0.165083 4.75142 30.1988
RightShoulder  1.54668 3.08187 16.8582
RightArm  -13.7186 -48.4588 18.2616
RightForeArm  -38.3187 18.3154 6.48367
RightHand  -1.22835 0.67735 -23.3783
LeftUpLeg  -30.7005 -0.877959 16.594
LeftLeg  28.3158 -2.75702 -1.26208
LeftFoot  14.3391 6.81983 -29.6665
LeftToes  -2.75829e-010 5.07641e-011 -5.51782e-011
313
root  12.0047 40.0351 -4.55526 -43.2681 -71.6624 37.5881
RightUpLeg  0.599005 -9.14995 -32.2627
RightLeg  18.2999 -16.7597 -6.72307
RightFoot  18.0841 -6.66762 25.4884
RightToes  -5.28226e-011 1.30204e-014 -6.03759e-014
Spine  29.4123 5.12399 20.5001
Spine1  -7.76371 11.5885 -18.1446
HEad  1.31382 -35.937 -10.8052
LeftShoulder1  -0.338015 5.22813 -12.7101
LeftArm  2.02215 12.6151 -60.174
LeftForeArm  -36.9778 -29.9765 -8.21145
LeftHand  -0.25962 4.33572 28.3029
RightShoulder  1.29636 2.23855 15.9261
RightArm  -17.5189 -42.8871 18.8604
RightForeArm  -36.4149 14.5321 6.32367
RightHand  -1.19505 0.729471 -22.5944
LeftUpLeg  -28.2628 2.06669 15.0403
LeftLeg  23.0787 -5.28656 -2.16335
LeftFoot  17.4626 8.60747 -33.135
LeftToes  -2.75829e-010 5.07641e-011 -5.51782e-011
314
root  11.9774 40.4027 -4.54569 -54.1914 -74.9853 50.0755
RightUpLeg  -3.03113 -10.4831 -31.7034
RightLeg  16.4322 -13.4757 -5.55516
RightFoot  21.7435 -7.14436 24.2469
RightToes  -5.28226e-011 1.30204e-014 -6.03759e-014
Spine  29.3571 4.82277 19.7459
Spine1  -9.09894 11.0153 -19.0795
HEad  0.400739 -30.411 -11.6238
LeftShoulder1  0.241968 2.48459 -16.1653
LeftArm  -7.35148 20.6457 -53.2389
LeftForeArm  -34.2073 -37.489 -10.3079
LeftHand  -0.224214 4.44655 27.3019
RightShoulder  0.999033 0.841577 16.3741
RightArm  -19.2157 -32.1686 18.0374
RightForeArm  -38.6398 12.1681 6.41469
RightHand  -1.31465 0.89547 -24.0831
LeftUpLeg  -25.2027 5.92633 15.561
LeftLeg  20.7416 -6.45317 -2.37511
LeftFoot  17.3756 9.81629 -37.5621
LeftToes  -2.75829e-010 5.07641e-011 -5.51782e-011
315
root  11.93 40.2812 -4.69208 -68.0361 -77.9449 64.84
RightUpLeg  -6.98031 -8.57904 -30.4188
RightLeg  18.1698 -11.7252 -4.76056
RightFoot  20.8429 -6.94098 24.2548
RightToes  -5.28226e-011 1.30204e-014 -6.03759e-014
Spine  28.6837 3.20279 15.0404
Spine1  -10.2561 7.73184 -15.2144
HEad  -1.67478 -18.674 -12.9461
LeftShoulder1  1.25504 -1.35261 -19.3966
LeftArm  -13.6934 31.1317 -46.0338
LeftForeArm  -35.8298 -41.4164 -11.701
LeftHand  -0.221389 4.42312 26.3347
RightShoulder  0.737775 -0.218906 15.7547
RightArm  -21.4487 -18.629 22.6717
RightForeArm  -38.7382 13.7082 6.71772
RightHand  -1.67462 1.74354 -26.9906
LeftUpLeg  -21.6801 9.01118 18.1855
LeftLeg  20.9068 -8.07282 -3.08799
LeftFoot  17.1775 10.4045 -39.8575
LeftToes  -2.75829e-010 5.07641e-011 -5.51782e-011
316
root  11.8932 39.7664 -5.04461 -70.4005 -79.7071 66.9791
RightUpLeg  -8.40799 -6.91285 -28.3198
RightLeg  21.5762 -11.2124 -5.03153
RightFoot  15.4481 -5.93258 25.0267
RightToes  -5.28226e-011 1.30204e-014 -6.03759e-014
Spine  27.7384 0.643062 5.7388
Spine1  -10.0094 2.06279 -4.13203
HEad  -5.36368 -3.50333 -13.2541
LeftShoulder1  2.0496 -3.82974 -21.6292
LeftArm  -12.341 39.1359 -40.5946
LeftForeArm  -40.0073 -36.7908 -10.3004
LeftHand  -0.372111 3.63238 24.3114
RightShoulder  0.498585 -1.09324 13.9725
RightArm  -25.5584 -8.02312 33.4235
RightForeArm  -33.3027 21.9951 6.80213
RightHand  -1.92813 2.20532 -29.1355
LeftUpLeg  -19.7625 8.70266 22.1376
LeftLeg  23.7678 -9.44706 -4.20949
LeftFoot  20.8572 10.366 -35.498
LeftToes  -2.75829e-010 5.07641e-011 -5.51782e-011
